<?xml version="1.0" encoding="UTF-8" standalone="no"?>
<!-- Created with Inkscape (http://www.inkscape.org/) -->

<svg
   xmlns:dc="http://purl.org/dc/elements/1.1/"
   xmlns:cc="http://creativecommons.org/ns#"
   xmlns:rdf="http://www.w3.org/1999/02/22-rdf-syntax-ns#"
   xmlns:svg="http://www.w3.org/2000/svg"
   xmlns="http://www.w3.org/2000/svg"
   xmlns:sodipodi="http://sodipodi.sourceforge.net/DTD/sodipodi-0.dtd"
   xmlns:inkscape="http://www.inkscape.org/namespaces/inkscape"
   width="744.09448819"
   height="1052.3622047"
   id="svg2"
   version="1.1"
   inkscape:version="0.48.1 r9760"
   sodipodi:docname="cross.svg"
   inkscape:export-filename="/media/storage/dave/Development/Projects/android/latelondondrinks/assets/icons/other/cross-3.png"
   inkscape:export-xdpi="13.381721"
   inkscape:export-ydpi="13.381721">
  <defs
     id="defs4">
    <filter
       color-interpolation-filters="sRGB"
       inkscape:collect="always"
       id="filter3878">
      <feGaussianBlur
         inkscape:collect="always"
         stdDeviation="0.14137505"
         id="feGaussianBlur3880" />
    </filter>
  </defs>
  <sodipodi:namedview
     id="base"
     pagecolor="#ffffff"
     bordercolor="#666666"
     borderopacity="1.0"
     inkscape:pageopacity="0.0"
     inkscape:pageshadow="2"
     inkscape:zoom="1"
     inkscape:cx="16599.103"
     inkscape:cy="712"
     inkscape:document-units="px"
     inkscape:current-layer="layer1"
     showgrid="false"
     inkscape:window-width="1920"
     inkscape:window-height="1176"
     inkscape:window-x="0"
     inkscape:window-y="24"
     inkscape:window-maximized="1" />
  <metadata
     id="metadata7">
    <rdf:RDF>
      <cc:Work
         rdf:about="">
        <dc:format>image/svg+xml</dc:format>
        <dc:type
           rdf:resource="http://purl.org/dc/dcmitype/StillImage" />
        <dc:title></dc:title>
      </cc:Work>
    </rdf:RDF>
  </metadata>
  <g
     inkscape:label="Layer 1"
     inkscape:groupmode="layer"
     id="layer1">
    <path
       style="opacity:0.8578125;fill:#000000;fill-opacity:0.10344831;stroke:#000000;stroke-width:4;stroke-miterlimit:4;stroke-opacity:1;stroke-dasharray:none"
       d="m 16808,61.88756 c -66.535,0 -120.474,53.93834 -120.474,120.47456 0,66.53634 53.939,120.47468 120.474,120.47468 66.536,0 120.475,-53.93834 120.475,-120.47468 0,-66.53622 -53.939,-120.47456 -120.475,-120.47456 z m -45.055,57.93167 c 1.656,0 3.346,0.63413 4.616,1.90267 l 40.439,40.43974 40.44,-40.43974 c 2.538,-2.53734 6.652,-2.53734 9.189,0 l 10.971,11.01111 c 2.536,2.53734 2.536,6.61162 0,9.1489 l -40.44,40.48019 40.44,40.43974 c 2.536,2.53733 2.536,6.61161 0,9.14898 l -10.971,11.01111 c -2.538,2.53734 -6.652,2.53734 -9.189,0 l -40.44,-40.43973 -40.439,40.43973 c -2.539,2.53734 -6.652,2.53734 -9.19,0 l -10.971,-11.01111 c -2.536,-2.53734 -2.536,-6.61162 0,-9.14898 l 40.44,-40.43974 -40.44,-40.48019 c -2.536,-2.53733 -2.536,-6.61164 0,-9.1489 l 10.971,-11.01111 c 1.269,-1.26854 2.919,-1.90267 4.574,-1.90267 z"
       id="path3006"
       inkscape:connector-curvature="0"
       sodipodi:nodetypes="ssssssccccccccccccccccccccs" />
    <path
       sodipodi:type="arc"
       style="opacity:1;fill:none;stroke:#000000;stroke-width:0.29491055999999999;stroke-miterlimit:4;stroke-opacity:0.52586208999999995;stroke-dasharray:none;filter:url(#filter3878)"
       id="path3832"
       sodipodi:cx="89.462219"
       sodipodi:cy="81.546944"
       sodipodi:rx="6.6345911"
       sodipodi:ry="5.6568618"
       d="m 96.09681,81.546944 a 6.6345911,5.6568618 0 1 1 -13.269182,0 6.6345911,5.6568618 0 1 1 13.269182,0 z"
       transform="matrix(18.786316,0,0,22.033334,15127.335,-1614.3889)" />
  </g>
</svg>
